<svg xmlns="http://www.w3.org/2000/svg" xmlns:xlink="http://www.w3.org/1999/xlink" width="160" zoomAndPan="magnify" viewBox="0 0 120 119.999999" height="160" preserveAspectRatio="xMidYMid meet" version="1.0"><defs><g/><clipPath id="af8c495fca"><path d="M 7.898438 46.886719 L 40.851562 46.886719 L 40.851562 77.636719 L 7.898438 77.636719 Z M 7.898438 46.886719 " clip-rule="nonzero"/></clipPath></defs><g fill="#ffffff" fill-opacity="1"><g transform="translate(46.824548, 53.869849)"><g><path d="M 4.359375 -8.535156 C 4.234375 -8.820312 3.996094 -8.820312 3.859375 -8.535156 L 0.183594 -0.265625 C 0.109375 -0.105469 0.183594 0 0.351562 0 L 1.578125 0 C 1.699219 0 1.792969 -0.0546875 1.839844 -0.179688 L 2.320312 -1.378906 L 5.90625 -1.378906 L 6.390625 -0.179688 C 6.433594 -0.0546875 6.527344 0 6.648438 0 L 7.871094 0 C 8.042969 0 8.109375 -0.105469 8.042969 -0.265625 Z M 4.117188 -5.816406 L 5.398438 -2.628906 L 2.828125 -2.628906 Z M 4.117188 -5.816406 "/></g></g></g><g fill="#ffffff" fill-opacity="1"><g transform="translate(55.0548, 53.869849)"><g><path d="M 3.9375 -6.003906 C 3.285156 -6.003906 2.578125 -5.75 1.988281 -5.171875 L 1.855469 -5.683594 C 1.820312 -5.820312 1.734375 -5.882812 1.605469 -5.882812 L 0.988281 -5.882812 C 0.84375 -5.882812 0.761719 -5.800781 0.761719 -5.65625 L 0.761719 -0.226562 C 0.761719 -0.078125 0.84375 0 0.988281 0 L 1.964844 0 C 2.117188 0 2.195312 -0.078125 2.195312 -0.226562 L 2.195312 -3.394531 C 2.195312 -4.234375 2.777344 -4.746094 3.5 -4.746094 C 4.238281 -4.746094 4.683594 -4.199219 4.683594 -3.429688 L 4.683594 -0.226562 C 4.683594 -0.078125 4.761719 0 4.910156 0 L 5.890625 0 C 6.035156 0 6.117188 -0.078125 6.117188 -0.226562 L 6.117188 -3.632812 C 6.117188 -4.789062 5.542969 -6.003906 3.9375 -6.003906 Z M 3.9375 -6.003906 "/></g></g></g><g fill="#ffffff" fill-opacity="1"><g transform="translate(61.868916, 53.869849)"><g><path d="M 1.472656 -6.449219 C 1.972656 -6.449219 2.34375 -6.828125 2.34375 -7.328125 C 2.34375 -7.820312 1.972656 -8.210938 1.472656 -8.210938 C 0.972656 -8.210938 0.59375 -7.820312 0.59375 -7.328125 C 0.59375 -6.828125 0.972656 -6.449219 1.472656 -6.449219 Z M 1.964844 0 C 2.117188 0 2.195312 -0.078125 2.195312 -0.226562 L 2.195312 -5.65625 C 2.195312 -5.800781 2.117188 -5.882812 1.964844 -5.882812 L 0.988281 -5.882812 C 0.84375 -5.882812 0.761719 -5.800781 0.761719 -5.65625 L 0.761719 -0.226562 C 0.761719 -0.078125 0.84375 0 0.988281 0 Z M 1.964844 0 "/></g></g></g><g fill="#ffffff" fill-opacity="1"><g transform="translate(64.834473, 53.869849)"><g><path d="M 6.882812 -8.304688 C 6.882812 -8.457031 6.800781 -8.535156 6.65625 -8.535156 L 5.679688 -8.535156 C 5.527344 -8.535156 5.449219 -8.457031 5.449219 -8.304688 L 5.457031 -5.253906 C 4.929688 -5.738281 4.214844 -6.003906 3.476562 -6.003906 C 1.785156 -6.003906 0.5 -4.632812 0.5 -2.9375 C 0.5 -1.25 1.785156 0.128906 3.476562 0.128906 C 4.328125 0.128906 5.109375 -0.214844 5.632812 -0.820312 L 5.800781 -0.199219 C 5.832031 -0.0625 5.921875 0 6.050781 0 L 6.667969 0 C 6.8125 0 6.894531 -0.078125 6.894531 -0.226562 Z M 3.714844 -1.15625 C 2.734375 -1.15625 1.933594 -1.957031 1.933594 -2.9375 C 1.933594 -3.929688 2.734375 -4.726562 3.714844 -4.726562 C 4.707031 -4.726562 5.503906 -3.929688 5.503906 -2.9375 C 5.503906 -1.957031 4.707031 -1.15625 3.714844 -1.15625 Z M 3.714844 -1.15625 "/></g></g></g><g fill="#ffffff" fill-opacity="1"><g transform="translate(72.487164, 53.869849)"><g><path d="M 2.996094 -6.003906 C 2.34375 -6.003906 1.644531 -5.882812 0.984375 -5.667969 C 0.84375 -5.617188 0.789062 -5.523438 0.839844 -5.378906 L 1.070312 -4.644531 C 1.117188 -4.5 1.214844 -4.460938 1.359375 -4.511719 C 1.871094 -4.699219 2.40625 -4.820312 2.867188 -4.820312 C 3.554688 -4.820312 4.078125 -4.550781 4.078125 -3.789062 L 4.078125 -3.417969 C 3.65625 -3.523438 3.238281 -3.578125 2.84375 -3.578125 C 1.523438 -3.578125 0.496094 -2.945312 0.496094 -1.679688 C 0.496094 -0.457031 1.429688 0.128906 2.472656 0.128906 C 3.105469 0.128906 3.8125 -0.0820312 4.285156 -0.722656 L 4.421875 -0.199219 C 4.449219 -0.0625 4.539062 0 4.671875 0 L 5.285156 0 C 5.433594 0 5.511719 -0.078125 5.511719 -0.226562 L 5.511719 -3.851562 C 5.511719 -5.421875 4.378906 -6.003906 2.996094 -6.003906 Z M 2.816406 -0.917969 C 2.339844 -0.917969 1.929688 -1.160156 1.929688 -1.699219 C 1.929688 -2.320312 2.464844 -2.566406 3.179688 -2.566406 C 3.464844 -2.566406 3.765625 -2.527344 4.078125 -2.457031 L 4.078125 -2.207031 C 4.078125 -1.238281 3.34375 -0.917969 2.816406 -0.917969 Z M 2.816406 -0.917969 "/></g></g></g><g fill="#ffffff" fill-opacity="1"><g transform="translate(78.707057, 53.869849)"><g><path d="M 2.5 0.128906 C 3.621094 0.128906 4.734375 -0.328125 4.734375 -1.695312 C 4.734375 -2.65625 3.972656 -3.117188 3.253906 -3.460938 C 2.59375 -3.777344 1.972656 -3.984375 1.972656 -4.371094 C 1.972656 -4.683594 2.246094 -4.828125 2.644531 -4.828125 C 2.984375 -4.828125 3.421875 -4.726562 3.851562 -4.570312 C 3.996094 -4.523438 4.09375 -4.566406 4.140625 -4.710938 L 4.371094 -5.457031 C 4.429688 -5.601562 4.367188 -5.699219 4.234375 -5.738281 C 3.679688 -5.917969 3.105469 -6.003906 2.644531 -6.003906 C 1.554688 -6.003906 0.550781 -5.449219 0.550781 -4.214844 C 0.550781 -3.34375 1.238281 -2.894531 1.917969 -2.535156 C 2.589844 -2.171875 3.277344 -1.933594 3.277344 -1.578125 C 3.277344 -1.160156 2.957031 -1.023438 2.515625 -1.023438 C 2.121094 -1.023438 1.621094 -1.128906 1.128906 -1.316406 C 0.972656 -1.371094 0.890625 -1.332031 0.839844 -1.195312 L 0.570312 -0.4375 C 0.523438 -0.3125 0.550781 -0.207031 0.722656 -0.15625 C 1.359375 0.0351562 1.945312 0.128906 2.5 0.128906 Z M 2.5 0.128906 "/></g></g></g><g fill="#ffffff" fill-opacity="1"><g transform="translate(83.921772, 53.869849)"><g><path d="M 3.253906 0.128906 C 4.761719 0.128906 5.84375 -0.777344 5.84375 -2.382812 L 5.84375 -5.65625 C 5.84375 -5.800781 5.761719 -5.882812 5.617188 -5.882812 L 4.640625 -5.882812 C 4.488281 -5.882812 4.410156 -5.800781 4.410156 -5.65625 L 4.410156 -2.429688 C 4.410156 -1.667969 3.984375 -1.183594 3.253906 -1.183594 C 2.550781 -1.183594 2.105469 -1.632812 2.105469 -2.429688 L 2.105469 -5.65625 C 2.105469 -5.800781 2.027344 -5.882812 1.878906 -5.882812 L 0.898438 -5.882812 C 0.75 -5.882812 0.671875 -5.800781 0.671875 -5.65625 L 0.671875 -2.382812 C 0.671875 -0.777344 1.746094 0.128906 3.253906 0.128906 Z M 3.253906 0.128906 "/></g></g></g><g fill="#ffffff" fill-opacity="1"><g transform="translate(90.441554, 53.869849)"><g><path d="M 3.640625 0.128906 C 5.445312 0.128906 6.804688 -1.140625 6.804688 -2.9375 C 6.804688 -4.746094 5.445312 -6.003906 3.640625 -6.003906 C 1.851562 -6.003906 0.488281 -4.746094 0.488281 -2.9375 C 0.488281 -1.140625 1.851562 0.128906 3.640625 0.128906 Z M 3.640625 -1.15625 C 2.644531 -1.15625 1.917969 -1.898438 1.917969 -2.9375 C 1.917969 -3.984375 2.644531 -4.726562 3.640625 -4.726562 C 4.65625 -4.726562 5.378906 -3.984375 5.378906 -2.9375 C 5.378906 -1.898438 4.65625 -1.15625 3.640625 -1.15625 Z M 3.640625 -1.15625 "/></g></g></g><g fill="#ffffff" fill-opacity="1"><g transform="translate(46.824548, 66.290157)"><g><path d="M 4.996094 0.199219 C 6.394531 0.199219 7.578125 -0.328125 8.371094 -1.199219 C 8.464844 -1.300781 8.445312 -1.40625 8.320312 -1.5 L 7.421875 -2.132812 C 7.3125 -2.222656 7.207031 -2.207031 7.109375 -2.105469 C 6.589844 -1.578125 5.851562 -1.25 5 -1.25 C 3.328125 -1.25 2.054688 -2.457031 2.054688 -4.273438 C 2.054688 -6.082031 3.328125 -7.285156 4.988281 -7.285156 C 5.851562 -7.285156 6.582031 -6.957031 7.109375 -6.429688 C 7.207031 -6.328125 7.316406 -6.3125 7.421875 -6.398438 L 8.320312 -7.039062 C 8.4375 -7.132812 8.457031 -7.246094 8.351562 -7.351562 C 7.550781 -8.214844 6.378906 -8.734375 4.988281 -8.734375 C 2.421875 -8.734375 0.488281 -6.945312 0.488281 -4.265625 C 0.488281 -1.589844 2.417969 0.199219 4.996094 0.199219 Z M 4.996094 0.199219 "/></g></g></g><g fill="#ffffff" fill-opacity="1"><g transform="translate(55.604595, 66.290157)"><g><path d="M 3.640625 0.128906 C 5.445312 0.128906 6.804688 -1.140625 6.804688 -2.9375 C 6.804688 -4.746094 5.445312 -6.003906 3.640625 -6.003906 C 1.851562 -6.003906 0.488281 -4.746094 0.488281 -2.9375 C 0.488281 -1.140625 1.851562 0.128906 3.640625 0.128906 Z M 3.640625 -1.15625 C 2.644531 -1.15625 1.917969 -1.898438 1.917969 -2.9375 C 1.917969 -3.984375 2.644531 -4.726562 3.640625 -4.726562 C 4.65625 -4.726562 5.378906 -3.984375 5.378906 -2.9375 C 5.378906 -1.898438 4.65625 -1.15625 3.640625 -1.15625 Z M 3.640625 -1.15625 "/></g></g></g><g fill="#ffffff" fill-opacity="1"><g transform="translate(62.901863, 66.290157)"><g><path d="M 7.449219 -6.003906 C 6.707031 -6.003906 5.929688 -5.679688 5.445312 -5.078125 C 5.105469 -5.660156 4.476562 -6.003906 3.777344 -6.003906 C 3.183594 -6.003906 2.5625 -5.792969 1.976562 -5.210938 L 1.855469 -5.683594 C 1.820312 -5.820312 1.734375 -5.882812 1.605469 -5.882812 L 0.988281 -5.882812 C 0.84375 -5.882812 0.761719 -5.800781 0.761719 -5.65625 L 0.761719 -0.226562 C 0.761719 -0.078125 0.84375 0 0.988281 0 L 1.964844 0 C 2.117188 0 2.195312 -0.078125 2.195312 -0.226562 L 2.195312 -3.515625 C 2.195312 -4.234375 2.667969 -4.75 3.382812 -4.75 C 4.117188 -4.75 4.460938 -4.210938 4.460938 -3.496094 L 4.460938 -0.226562 C 4.460938 -0.078125 4.539062 0 4.6875 0 L 5.667969 0 C 5.816406 0 5.894531 -0.078125 5.894531 -0.226562 L 5.894531 -3.515625 C 5.894531 -4.234375 6.378906 -4.75 7.082031 -4.75 C 7.789062 -4.75 8.144531 -4.210938 8.144531 -3.496094 L 8.144531 -0.226562 C 8.144531 -0.078125 8.226562 0 8.371094 0 L 9.351562 0 C 9.5 0 9.578125 -0.078125 9.578125 -0.226562 L 9.578125 -3.734375 C 9.578125 -5.011719 8.765625 -6.003906 7.449219 -6.003906 Z M 7.449219 -6.003906 "/></g></g></g><g fill="#ffffff" fill-opacity="1"><g transform="translate(73.175795, 66.290157)"><g><path d="M 7.449219 -6.003906 C 6.707031 -6.003906 5.929688 -5.679688 5.445312 -5.078125 C 5.105469 -5.660156 4.476562 -6.003906 3.777344 -6.003906 C 3.183594 -6.003906 2.5625 -5.792969 1.976562 -5.210938 L 1.855469 -5.683594 C 1.820312 -5.820312 1.734375 -5.882812 1.605469 -5.882812 L 0.988281 -5.882812 C 0.84375 -5.882812 0.761719 -5.800781 0.761719 -5.65625 L 0.761719 -0.226562 C 0.761719 -0.078125 0.84375 0 0.988281 0 L 1.964844 0 C 2.117188 0 2.195312 -0.078125 2.195312 -0.226562 L 2.195312 -3.515625 C 2.195312 -4.234375 2.667969 -4.75 3.382812 -4.75 C 4.117188 -4.75 4.460938 -4.210938 4.460938 -3.496094 L 4.460938 -0.226562 C 4.460938 -0.078125 4.539062 0 4.6875 0 L 5.667969 0 C 5.816406 0 5.894531 -0.078125 5.894531 -0.226562 L 5.894531 -3.515625 C 5.894531 -4.234375 6.378906 -4.75 7.082031 -4.75 C 7.789062 -4.75 8.144531 -4.210938 8.144531 -3.496094 L 8.144531 -0.226562 C 8.144531 -0.078125 8.226562 0 8.371094 0 L 9.351562 0 C 9.5 0 9.578125 -0.078125 9.578125 -0.226562 L 9.578125 -3.734375 C 9.578125 -5.011719 8.765625 -6.003906 7.449219 -6.003906 Z M 7.449219 -6.003906 "/></g></g></g><g fill="#ffffff" fill-opacity="1"><g transform="translate(83.449727, 66.290157)"><g><path d="M 3.449219 -6.003906 C 1.773438 -6.003906 0.503906 -4.800781 0.503906 -2.9375 C 0.503906 -1.054688 1.859375 0.128906 3.511719 0.128906 C 4.40625 0.128906 5.277344 -0.25 5.933594 -0.9375 C 6.050781 -1.054688 6.050781 -1.167969 5.9375 -1.25 L 5.394531 -1.851562 C 5.289062 -1.933594 5.207031 -1.929688 5.101562 -1.828125 C 4.660156 -1.378906 4.09375 -1.140625 3.550781 -1.140625 C 2.695312 -1.140625 1.945312 -1.710938 1.90625 -2.738281 L 6.089844 -2.738281 C 6.25 -2.738281 6.332031 -2.792969 6.332031 -2.996094 C 6.332031 -4.800781 5.128906 -6.003906 3.449219 -6.003906 Z M 3.476562 -4.820312 C 4.082031 -4.820312 4.671875 -4.496094 4.84375 -3.746094 L 2.003906 -3.746094 C 2.214844 -4.5 2.890625 -4.820312 3.476562 -4.820312 Z M 3.476562 -4.820312 "/></g></g></g><g fill="#ffffff" fill-opacity="1"><g transform="translate(90.263843, 66.290157)"><g><path d="M 1.964844 0 C 2.117188 0 2.195312 -0.078125 2.195312 -0.226562 L 2.195312 -3.171875 C 2.195312 -4.179688 2.609375 -4.699219 3.351562 -4.699219 C 3.464844 -4.699219 3.621094 -4.683594 3.792969 -4.644531 C 3.9375 -4.609375 4.039062 -4.660156 4.070312 -4.800781 L 4.292969 -5.648438 C 4.328125 -5.785156 4.277344 -5.890625 4.144531 -5.929688 C 3.960938 -5.976562 3.777344 -6.003906 3.617188 -6.003906 C 3.023438 -6.003906 2.417969 -5.738281 2.003906 -5.0625 L 1.851562 -5.683594 C 1.816406 -5.820312 1.726562 -5.882812 1.601562 -5.882812 L 0.984375 -5.882812 C 0.839844 -5.882812 0.753906 -5.800781 0.753906 -5.65625 L 0.761719 -0.226562 C 0.761719 -0.078125 0.84375 0 0.988281 0 Z M 1.964844 0 "/></g></g></g><g fill="#ffffff" fill-opacity="1"><g transform="translate(94.81214, 66.290157)"><g><path d="M 3.667969 0.128906 C 4.65625 0.128906 5.566406 -0.3125 6.117188 -1.015625 C 6.199219 -1.128906 6.179688 -1.226562 6.054688 -1.320312 L 5.367188 -1.921875 C 5.246094 -2.003906 5.148438 -1.972656 5.050781 -1.859375 C 4.746094 -1.429688 4.234375 -1.15625 3.667969 -1.15625 C 2.667969 -1.15625 1.90625 -1.898438 1.90625 -2.9375 C 1.90625 -3.984375 2.667969 -4.726562 3.667969 -4.726562 C 4.25 -4.726562 4.746094 -4.449219 5.054688 -4.015625 C 5.15625 -3.898438 5.253906 -3.878906 5.371094 -3.960938 L 6.054688 -4.550781 C 6.171875 -4.632812 6.199219 -4.753906 6.109375 -4.871094 C 5.550781 -5.566406 4.667969 -6.003906 3.667969 -6.003906 C 1.867188 -6.003906 0.488281 -4.746094 0.488281 -2.9375 C 0.488281 -1.140625 1.867188 0.128906 3.667969 0.128906 Z M 3.667969 0.128906 "/></g></g></g><g fill="#ffffff" fill-opacity="1"><g transform="translate(101.409671, 66.290157)"><g><path d="M 3.449219 -6.003906 C 1.773438 -6.003906 0.503906 -4.800781 0.503906 -2.9375 C 0.503906 -1.054688 1.859375 0.128906 3.511719 0.128906 C 4.40625 0.128906 5.277344 -0.25 5.933594 -0.9375 C 6.050781 -1.054688 6.050781 -1.167969 5.9375 -1.25 L 5.394531 -1.851562 C 5.289062 -1.933594 5.207031 -1.929688 5.101562 -1.828125 C 4.660156 -1.378906 4.09375 -1.140625 3.550781 -1.140625 C 2.695312 -1.140625 1.945312 -1.710938 1.90625 -2.738281 L 6.089844 -2.738281 C 6.25 -2.738281 6.332031 -2.792969 6.332031 -2.996094 C 6.332031 -4.800781 5.128906 -6.003906 3.449219 -6.003906 Z M 3.476562 -4.820312 C 4.082031 -4.820312 4.671875 -4.496094 4.84375 -3.746094 L 2.003906 -3.746094 C 2.214844 -4.5 2.890625 -4.820312 3.476562 -4.820312 Z M 3.476562 -4.820312 "/></g></g></g><g fill="#ffffff" fill-opacity="1"><g transform="translate(46.824548, 78.710464)"><g><path d="M 2.179688 0 C 2.328125 0 2.40625 -0.078125 2.40625 -0.226562 L 2.40625 -2.785156 L 6.101562 -2.785156 L 6.101562 -0.226562 C 6.101562 -0.078125 6.179688 0 6.328125 0 L 7.433594 0 C 7.582031 0 7.660156 -0.078125 7.660156 -0.226562 L 7.660156 -8.304688 C 7.660156 -8.457031 7.582031 -8.535156 7.433594 -8.535156 L 6.328125 -8.535156 C 6.179688 -8.535156 6.101562 -8.457031 6.101562 -8.304688 L 6.101562 -4.167969 L 2.40625 -4.167969 L 2.40625 -8.304688 C 2.40625 -8.457031 2.328125 -8.535156 2.179688 -8.535156 L 1.070312 -8.535156 C 0.921875 -8.535156 0.84375 -8.457031 0.84375 -8.304688 L 0.84375 -0.226562 C 0.84375 -0.078125 0.921875 0 1.070312 0 Z M 2.179688 0 "/></g></g></g><g fill="#ffffff" fill-opacity="1"><g transform="translate(55.332474, 78.710464)"><g><path d="M 3.253906 0.128906 C 4.761719 0.128906 5.84375 -0.777344 5.84375 -2.382812 L 5.84375 -5.65625 C 5.84375 -5.800781 5.761719 -5.882812 5.617188 -5.882812 L 4.640625 -5.882812 C 4.488281 -5.882812 4.410156 -5.800781 4.410156 -5.65625 L 4.410156 -2.429688 C 4.410156 -1.667969 3.984375 -1.183594 3.253906 -1.183594 C 2.550781 -1.183594 2.105469 -1.632812 2.105469 -2.429688 L 2.105469 -5.65625 C 2.105469 -5.800781 2.027344 -5.882812 1.878906 -5.882812 L 0.898438 -5.882812 C 0.75 -5.882812 0.671875 -5.800781 0.671875 -5.65625 L 0.671875 -2.382812 C 0.671875 -0.777344 1.746094 0.128906 3.253906 0.128906 Z M 3.253906 0.128906 "/></g></g></g><g fill="#ffffff" fill-opacity="1"><g transform="translate(61.852256, 78.710464)"><g><path d="M 4.179688 -6.003906 C 3.4375 -6.003906 2.726562 -5.738281 2.199219 -5.253906 L 2.207031 -8.304688 C 2.207031 -8.457031 2.128906 -8.535156 1.976562 -8.535156 L 1 -8.535156 C 0.855469 -8.535156 0.773438 -8.457031 0.773438 -8.304688 L 0.761719 -0.226562 C 0.761719 -0.078125 0.84375 0 0.988281 0 L 1.605469 0 C 1.734375 0 1.820312 -0.0625 1.855469 -0.199219 L 2.023438 -0.820312 C 2.542969 -0.214844 3.328125 0.128906 4.179688 0.128906 C 5.871094 0.128906 7.15625 -1.25 7.15625 -2.9375 C 7.15625 -4.632812 5.871094 -6.003906 4.179688 -6.003906 Z M 3.9375 -1.15625 C 2.949219 -1.15625 2.148438 -1.957031 2.148438 -2.9375 C 2.148438 -3.929688 2.949219 -4.726562 3.9375 -4.726562 C 4.921875 -4.726562 5.722656 -3.929688 5.722656 -2.9375 C 5.722656 -1.957031 4.921875 -1.15625 3.9375 -1.15625 Z M 3.9375 -1.15625 "/></g></g></g><g clip-path="url(#af8c495fca)"><path fill="#ffd700" d="M 19.863281 55.085938 C 20.09375 54.445312 20.226562 53.757812 20.226562 53.039062 C 20.226562 49.644531 17.449219 46.886719 14.039062 46.886719 C 11.753906 46.886719 9.761719 48.128906 8.6875 49.960938 L 12.492188 49.960938 C 12.628906 49.960938 12.761719 50.015625 12.855469 50.113281 L 13.738281 50.988281 L 15.730469 50.988281 C 15.90625 50.683594 16.238281 50.476562 16.617188 50.476562 C 17.183594 50.476562 17.648438 50.933594 17.648438 51.5 C 17.648438 52.066406 17.183594 52.523438 16.617188 52.523438 C 16.238281 52.523438 15.90625 52.316406 15.730469 52.011719 L 13.523438 52.011719 C 13.386719 52.011719 13.253906 51.957031 13.160156 51.863281 L 12.277344 50.988281 L 8.214844 50.988281 C 7.984375 51.628906 7.851562 52.316406 7.851562 53.039062 C 7.851562 56.429688 10.628906 59.1875 14.039062 59.1875 C 16.324219 59.1875 18.316406 57.949219 19.390625 56.113281 L 15.585938 56.113281 C 15.449219 56.113281 15.316406 56.058594 15.222656 55.960938 L 14.339844 55.085938 L 12.347656 55.085938 C 12.167969 55.390625 11.839844 55.601562 11.460938 55.601562 C 10.890625 55.601562 10.429688 55.140625 10.429688 54.574219 C 10.429688 54.007812 10.890625 53.550781 11.460938 53.550781 C 11.839844 53.550781 12.167969 53.757812 12.347656 54.0625 L 14.554688 54.0625 C 14.691406 54.0625 14.824219 54.117188 14.917969 54.210938 L 15.800781 55.085938 Z M 40.847656 53.039062 C 40.847656 49.644531 38.074219 46.886719 34.660156 46.886719 C 31.25 46.886719 28.476562 49.644531 28.476562 53.039062 C 28.476562 56.429688 31.25 59.1875 34.660156 59.1875 C 38.074219 59.1875 40.847656 56.429688 40.847656 53.039062 Z M 32.34375 54.320312 C 32.34375 54.742188 32.6875 55.085938 33.117188 55.085938 L 37.496094 55.085938 C 37.78125 55.085938 38.011719 55.316406 38.011719 55.601562 C 38.011719 55.882812 37.78125 56.113281 37.496094 56.113281 L 35.175781 56.113281 L 35.175781 57.648438 C 35.175781 57.933594 34.945312 58.164062 34.660156 58.164062 C 34.378906 58.164062 34.144531 57.933594 34.144531 57.648438 L 34.144531 56.113281 L 33.117188 56.113281 C 32.121094 56.113281 31.3125 55.308594 31.3125 54.320312 C 31.3125 53.328125 32.121094 52.523438 33.117188 52.523438 L 36.207031 52.523438 C 36.636719 52.523438 36.980469 52.179688 36.980469 51.757812 C 36.980469 51.332031 36.636719 50.988281 36.207031 50.988281 L 31.828125 50.988281 C 31.542969 50.988281 31.3125 50.757812 31.3125 50.476562 C 31.3125 50.191406 31.542969 49.960938 31.828125 49.960938 L 34.144531 49.960938 L 34.144531 48.425781 C 34.144531 48.140625 34.378906 47.914062 34.660156 47.914062 C 34.945312 47.914062 35.175781 48.140625 35.175781 48.425781 L 35.175781 49.960938 L 36.207031 49.960938 C 37.203125 49.960938 38.011719 50.765625 38.011719 51.757812 C 38.011719 52.746094 37.203125 53.550781 36.207031 53.550781 L 33.117188 53.550781 C 32.6875 53.550781 32.34375 53.894531 32.34375 54.320312 Z M 23.898438 67.652344 C 24.082031 67.324219 24.621094 67.324219 24.800781 67.652344 L 29.957031 76.875 C 30.046875 77.035156 30.042969 77.226562 29.949219 77.382812 C 29.859375 77.542969 29.6875 77.636719 29.507812 77.636719 L 19.195312 77.636719 C 19.011719 77.636719 18.84375 77.542969 18.75 77.382812 C 18.65625 77.226562 18.65625 77.035156 18.742188 76.875 Z M 8.882812 60.210938 L 19.195312 60.210938 C 19.765625 60.210938 20.226562 60.671875 20.226562 61.238281 C 20.226562 61.804688 19.765625 62.261719 19.195312 62.261719 L 15.070312 62.261719 L 15.070312 64.3125 C 15.070312 64.878906 15.53125 65.335938 16.101562 65.335938 L 32.601562 65.335938 C 33.167969 65.335938 33.628906 64.878906 33.628906 64.3125 L 33.628906 62.261719 L 29.507812 62.261719 C 28.9375 62.261719 28.476562 61.804688 28.476562 61.238281 C 28.476562 60.671875 28.9375 60.210938 29.507812 60.210938 L 39.816406 60.210938 C 40.386719 60.210938 40.847656 60.671875 40.847656 61.238281 C 40.847656 61.804688 40.386719 62.261719 39.816406 62.261719 L 35.691406 62.261719 L 35.691406 64.3125 C 35.691406 66.007812 34.304688 67.386719 32.601562 67.386719 L 16.101562 67.386719 C 14.394531 67.386719 13.007812 66.007812 13.007812 64.3125 L 13.007812 62.261719 L 8.882812 62.261719 C 8.3125 62.261719 7.851562 61.804688 7.851562 61.238281 C 7.851562 60.671875 8.3125 60.210938 8.882812 60.210938 Z M 8.882812 60.210938 " fill-opacity="1" fill-rule="nonzero"/></g></svg>